<svg xmlns="http://www.w3.org/2000/svg" viewBox="0 0 24 24" fill="white">
  <path d="M12.04 2.01A10.03 10.03 0 0 0 2.01 12.04a10.03 10.03 0 0 0 10.03 10.03 10.03 10.03 0 0 0 10.03-10.03c0-5.54-4.49-10.03-10.03-10.03zM12 20.1c-4.43 0-8.02-3.59-8.02-8.02S7.57 4.06 12 4.06s8.02 3.59 8.02 8.02-3.59 8.02-8.02 8.02zm3.34-6.83c-.13-.07-1.52-.75-1.75-.83s-.39-.07-.56.3-.66.83-.81.99s-.3.18-.56.06c-1.29-.48-2.14-1.14-2.97-2.19-.65-.83-.98-1.4-1.22-1.92-.1-.23-.03-.36.06-.48.11-.11.23-.28.34-.42.11-.13.16-.23.23-.39.07-.15,0-.3-.07-.38L8.1 7.42c-.28-.68-.56-.58-.75-.58s-.39,0-.56,0c-.18,0-.46.07-.7.34s-1.01 1-1.01 2.44 1.04 2.83 1.18 3.02.13.18 2.04 3.2 1.41.98 2.33 1.25.75.21 1.15.18c.48-.04 1.52-.62 1.73-1.22s.21-1.12.15-1.22c-.07-.1-.23-.15-.35-.22z"/>
</svg>
