<svg role="img" viewBox="0 0 24 24" xmlns="http://www.w3.org/2000/svg" fill="white">
  <title>WhatsApp</title>
  <path d="M12.06 0C5.4 0 0 5.4 0 12.06c0 3.48 1.44 6.63 3.78 8.85L0 24l3.12-3.72c2.16 1.32 4.68 2.04 7.26 2.04h.06c6.66 0 12.06-5.4 12.06-12.06S18.72 0 12.06 0zm5.46 16.5c-.18.36-.96.9-1.32 1.02-.3.12-.72.18-1.14.06-.42-.12-1.02-.36-1.92-.72-.96-.42-1.56-1.02-2.22-1.8-.72-.78-1.14-1.5-1.5-2.28-.36-.78-.3-1.2.06-1.62.3-.36.66-.48.9-.72.24-.24.3-.36.42-.6.12-.24.06-.48 0-.66L9 9.18c-.18-.42-.36-.48-.54-.54-.18-.06-.36-.06-.54-.06h-.42c-.18 0-.48.06-.72.36-.24.3-.9.84-.9 2.1s.96 2.4 1.08 2.58c.12.18 1.8 3.12 4.5 4.5.66.36 1.2.48 1.62.6.48.12.9.12 1.26.06.42-.06 1.02-.42 1.2-1.02s.18-.96.12-1.08c-.06-.12-.18-.18-.36-.24z"/>
</svg>
